<svg width="21" height="19" viewBox="0 0 21 19" fill="none" xmlns="http://www.w3.org/2000/svg">
    <path fill-rule="evenodd" clip-rule="evenodd"
          d="M1.83334 2.06041C4.53512 2.07324 6.41837 2.42596 7.68505 3.05443C8.88485 3.64972 9.54042 4.49432 9.83333 5.61127V16.3565C8.31733 15.194 5.98745 14.5233 1.84581 14.5219C1.84013 14.5066 1.83334 14.4798 1.83334 14.4384V2.06041ZM11.1667 16.3555C12.6855 15.1889 15.0145 14.5219 19.1667 14.5219V2.0604C16.4649 2.07324 14.5816 2.42596 13.315 3.05443C12.1151 3.64972 11.4596 4.49432 11.1667 5.61127V16.3555ZM10.5 3.77853C9.99396 2.95911 9.25433 2.2985 8.25985 1.80509C6.73085 1.04647 4.61503 0.688733 1.83633 0.675793L1.83585 0.675791C1.66024 0.675103 1.48623 0.710516 1.32386 0.779986C1.16149 0.849457 1.01397 0.951612 0.889792 1.08057C0.765616 1.20952 0.667243 1.36272 0.600345 1.53133C0.533634 1.69948 0.499538 1.87964 0.500005 2.06149V14.4384C0.500005 14.7909 0.605155 15.1514 0.838027 15.4355C1.07931 15.7297 1.43121 15.9066 1.83334 15.9066C7.08735 15.9066 8.9012 17.015 9.97922 18.4157C10.1057 18.58 10.2973 18.6757 10.4999 18.6758C10.7024 18.6758 10.894 18.5802 11.0206 18.4159C12.106 17.0069 13.9123 15.9066 19.1667 15.9066C19.5203 15.9066 19.8594 15.7607 20.1095 15.501C20.3595 15.2413 20.5 14.8892 20.5 14.5219V2.06135C20.5004 1.87954 20.4663 1.69943 20.3997 1.53133C20.3328 1.36272 20.2344 1.20952 20.1102 1.08057C19.986 0.951611 19.8385 0.849456 19.6761 0.779986C19.5138 0.710516 19.3398 0.675103 19.1642 0.675791L19.1637 0.675793C16.385 0.688733 14.2691 1.04647 12.7402 1.80509C11.7457 2.2985 11.006 2.95911 10.5 3.77853Z"
          fill="black"/>
</svg>
