<svg width="16" height="17" viewBox="0 0 16 17" fill="none" xmlns="http://www.w3.org/2000/svg">
<g clip-path="url(#clip0_214_382)">
<path d="M1.39572 1.93989L1.27318 2.09625C1.07148 2.35362 0.900449 2.65359 0.772303 2.97994C0.652399 3.29648 0.580225 3.59161 0.547327 3.88282L0.546889 3.88657C0.249029 6.3559 1.34476 8.681 4.66828 12.0046C4.66829 12.0046 4.66829 12.0046 4.66829 12.0046M1.39572 1.93989L4.66829 12.0046M1.39572 1.93989L1.91104 1.42161C2.23834 1.09467 2.73655 1.10462 3.01993 1.38786C3.01995 1.38788 3.01998 1.3879 3.02 1.38793L5.4907 3.85918C5.49075 3.85923 5.4908 3.85928 5.49085 3.85933C5.49086 3.85934 5.49087 3.85935 5.49088 3.85935C5.775 4.14402 5.78452 4.64211 5.45773 4.96899L5.45756 4.96916L5.04728 5.37995L5.0468 5.38043L4.21178 6.2142L3.94128 6.4843L4.131 6.81617C4.1665 6.87827 4.20238 6.94318 4.24162 7.01416C4.24814 7.02595 4.25475 7.03791 4.26146 7.05005L4.26187 7.05079L4.26737 7.06069C4.70735 7.85285 5.33243 8.97828 6.51534 10.1611M1.39572 1.93989L6.51534 10.1611M4.66829 12.0046C9.12703 16.463 12.6738 16.1426 12.7939 16.1304M4.66829 12.0046L12.7939 16.1304M12.7939 16.1304C13.1011 16.0934 13.3954 16.0201 13.6974 15.9029C14.021 15.7765 14.3215 15.6054 14.5795 15.4036L14.7021 15.3076L15.2563 14.765C15.5806 14.4381 15.5711 13.9405 15.2874 13.6556C15.2873 13.6555 15.2872 13.6554 15.2872 13.6554L12.8175 11.1854C12.8174 11.1853 12.8172 11.1852 12.8171 11.185C12.5319 10.9014 12.0334 10.8928 11.7074 11.2189L11.7073 11.219L10.4625 12.4636L10.1967 12.7292L9.86761 12.5479C9.78816 12.5041 9.70603 12.4584 9.61981 12.41L9.61943 12.4098C8.82687 11.9706 7.69932 11.3459 6.51549 10.1612C6.51544 10.1612 6.51539 10.1611 6.51534 10.1611M12.7939 16.1304L4.70145 6.81247C5.13815 7.59871 5.73561 8.67438 6.86902 9.80766L6.51534 10.1611" stroke="black"/>
</g>
<defs>
<clipPath id="clip0_214_382">
<rect width="16" height="16" fill="white" transform="translate(0 0.675781)"/>
</clipPath>
</defs>
</svg>
