<svg width="20" height="21" viewBox="0 0 20 21" fill="none" xmlns="http://www.w3.org/2000/svg">
<g clip-path="url(#clip0_214_405)">
<path d="M11.7578 10.6758C11.7578 11.6465 10.9708 12.4336 10 12.4336C9.02924 12.4336 8.24219 11.6465 8.24219 10.6758C8.24219 9.70502 9.02924 8.91797 10 8.91797C10.9708 8.91797 11.7578 9.70502 11.7578 10.6758Z" fill="#264796"/>
<path d="M12.9688 5.36328H7.03125C5.73883 5.36328 4.6875 6.41461 4.6875 7.70703V13.6445C4.6875 14.937 5.73883 15.9883 7.03125 15.9883H12.9688C14.2612 15.9883 15.3125 14.937 15.3125 13.6445V7.70703C15.3125 6.41461 14.2612 5.36328 12.9688 5.36328ZM10 13.6055C8.38455 13.6055 7.07031 12.2912 7.07031 10.6758C7.07031 9.06033 8.38455 7.74609 10 7.74609C11.6154 7.74609 12.9297 9.06033 12.9297 10.6758C12.9297 12.2912 11.6154 13.6055 10 13.6055ZM13.3594 7.90234C13.0357 7.90234 12.7734 7.64005 12.7734 7.31641C12.7734 6.99277 13.0357 6.73047 13.3594 6.73047C13.683 6.73047 13.9453 6.99277 13.9453 7.31641C13.9453 7.64005 13.683 7.90234 13.3594 7.90234Z" fill="#264796"/>
<path d="M14.7266 0.675781H5.27344C2.36572 0.675781 0 3.0415 0 5.94922V15.4023C0 18.3101 2.36572 20.6758 5.27344 20.6758H14.7266C17.6343 20.6758 20 18.3101 20 15.4023V5.94922C20 3.0415 17.6343 0.675781 14.7266 0.675781ZM16.4844 13.6445C16.4844 15.583 14.9072 17.1602 12.9688 17.1602H7.03125C5.09277 17.1602 3.51562 15.583 3.51562 13.6445V7.70703C3.51562 5.76855 5.09277 4.19141 7.03125 4.19141H12.9688C14.9072 4.19141 16.4844 5.76855 16.4844 7.70703V13.6445Z" fill="#264796"/>
</g>
<defs>
<clipPath id="clip0_214_405">
<rect width="20" height="20" fill="white" transform="translate(0 0.675781)"/>
</clipPath>
</defs>
</svg>
