<svg width="24" height="24" viewBox="0 0 24 24" fill="none" xmlns="http://www.w3.org/2000/svg">
<path d="M5.5 0.5V5.5M18.5 0.5V5.5M0.5 7.5H23.5M17 15.499C17 16.4879 16.7068 17.4546 16.1573 18.2769C15.6079 19.0991 14.827 19.74 13.9134 20.1184C12.9998 20.4968 11.9945 20.5959 11.0245 20.4029C10.0546 20.21 9.16373 19.7338 8.46447 19.0345C7.7652 18.3353 7.289 17.4444 7.09607 16.4745C6.90315 15.5045 7.00216 14.4992 7.3806 13.5856C7.75904 12.672 8.3999 11.8911 9.22215 11.3417C10.0444 10.7922 11.0111 10.499 12 10.499M10 14.999L11.62 16.214C11.7225 16.2909 11.8507 16.3254 11.978 16.3105C12.1053 16.2956 12.222 16.2324 12.304 16.134L17 10.499M1.5 2.5H22.5C22.5 2.5 23.5 2.5 23.5 3.5V22.5C23.5 22.5 23.5 23.5 22.5 23.5H1.5C1.5 23.5 0.5 23.5 0.5 22.5V3.5C0.5 3.5 0.5 2.5 1.5 2.5Z" stroke="white" stroke-linecap="round" stroke-linejoin="round"/>
</svg>
