<svg width="42" height="56" viewBox="0 0 42 56" fill="none" xmlns="http://www.w3.org/2000/svg">
<path d="M35.3046 31.0469C33.4848 34.735 31.0191 38.4093 28.4979 41.7084C26.1035 44.8166 23.5463 47.7958 20.8369 50.6336C18.1274 47.7958 15.5702 44.8166 13.1758 41.7084C10.6546 38.4093 8.18889 34.735 6.36913 31.0469C4.52854 27.3206 3.47281 23.8304 3.47281 20.8369C3.47281 16.2316 5.30223 11.815 8.55862 8.55862C11.815 5.30223 16.2316 3.47281 20.8369 3.47281C25.4421 3.47281 29.8587 5.30223 33.1151 8.55862C36.3715 11.815 38.2009 16.2316 38.2009 20.8369C38.2009 23.8304 37.1417 27.3206 35.3046 31.0469ZM20.8369 55.565C20.8369 55.565 41.6737 35.8186 41.6737 20.8369C41.6737 15.3106 39.4784 10.0106 35.5707 6.10297C31.6631 2.19531 26.3631 0 20.8369 0C15.3106 0 10.0106 2.19531 6.10297 6.10297C2.19531 10.0106 8.2348e-08 15.3106 0 20.8369C0 35.8186 20.8369 55.565 20.8369 55.565Z" fill="black"/>
<path d="M20.8364 27.782C18.9943 27.782 17.2277 27.0502 15.9251 25.7477C14.6225 24.4451 13.8908 22.6785 13.8908 20.8364C13.8908 18.9943 14.6225 17.2277 15.9251 15.9251C17.2277 14.6225 18.9943 13.8908 20.8364 13.8908C22.6785 13.8908 24.4451 14.6225 25.7477 15.9251C27.0502 17.2277 27.782 18.9943 27.782 20.8364C27.782 22.6785 27.0502 24.4451 25.7477 25.7477C24.4451 27.0502 22.6785 27.782 20.8364 27.782ZM20.8364 31.2548C23.5995 31.2548 26.2495 30.1572 28.2033 28.2033C30.1572 26.2495 31.2548 23.5995 31.2548 20.8364C31.2548 18.0733 30.1572 15.4233 28.2033 13.4695C26.2495 11.5156 23.5995 10.418 20.8364 10.418C18.0733 10.418 15.4233 11.5156 13.4695 13.4695C11.5156 15.4233 10.418 18.0733 10.418 20.8364C10.418 23.5995 11.5156 26.2495 13.4695 28.2033C15.4233 30.1572 18.0733 31.2548 20.8364 31.2548Z" fill="black"/>
</svg>
