<svg width="24" height="24" viewBox="0 0 24 24" fill="none" xmlns="http://www.w3.org/2000/svg">
<path d="M11.5883 15.7984C11.6342 15.8606 11.6955 15.9114 11.7671 15.9465C11.8388 15.9816 11.9184 16 11.9993 16C12.0802 16 12.1599 15.9816 12.2315 15.9465C12.3031 15.9114 12.3645 15.8606 12.4104 15.7984L16.9107 9.73215C16.9628 9.66218 16.9933 9.58023 16.999 9.4952C17.0047 9.41016 16.9853 9.3253 16.943 9.24983C16.9006 9.17436 16.8369 9.11117 16.7587 9.06713C16.6806 9.02308 16.591 8.99987 16.4997 9H7.49897C7.40788 9.00035 7.31862 9.02387 7.24079 9.06802C7.16296 9.11217 7.09949 9.17529 7.05722 9.25058C7.01495 9.32587 6.99547 9.4105 7.00089 9.49535C7.0063 9.5802 7.03639 9.66207 7.08794 9.73215L11.5883 15.7984Z" fill="black"/>
</svg>
