<svg width="15" height="16" viewBox="0 0 15 16" fill="none" xmlns="http://www.w3.org/2000/svg">
<g clip-path="url(#clip0_214_400)">
<path d="M7.5 0.675781C3.36457 0.675781 0 4.04035 0 8.17578C0 12.3112 3.36457 15.6758 7.5 15.6758C11.6354 15.6758 15 12.3112 15 8.17578C15 4.04035 11.6354 0.675781 7.5 0.675781ZM7.5 14.7383C3.88137 14.7383 0.937504 11.7944 0.937504 8.17578C0.937504 4.55716 3.88137 1.61329 7.5 1.61329C11.1186 1.61329 14.0625 4.55716 14.0625 8.17578C14.0625 11.7944 11.1186 14.7383 7.5 14.7383Z" fill="black"/>
<path d="M7.96875 3.48828H7.03125V8.36986L9.98107 11.3197L10.6439 10.6568L7.96875 7.98168V3.48828Z" fill="black"/>
</g>
<defs>
<clipPath id="clip0_214_400">
<rect width="15" height="15" fill="white" transform="translate(0 0.675781)"/>
</clipPath>
</defs>
</svg>
