<svg width="16" height="17" viewBox="0 0 16 17" fill="none" xmlns="http://www.w3.org/2000/svg">
<g clip-path="url(#clip0_214_396)">
<path d="M14.5 2.67578H1.50001C0.672854 2.67578 0 3.34864 0 4.17579V13.1758C0 14.003 0.672854 14.6758 1.50001 14.6758H14.5C15.3271 14.6758 16 14.003 16 13.1758V4.17579C16 3.34864 15.3271 2.67578 14.5 2.67578ZM14.5 3.67578C14.5679 3.67578 14.6325 3.68987 14.6916 3.71449L8 9.51418L1.30833 3.71449C1.36742 3.68991 1.43204 3.67578 1.49998 3.67578H14.5ZM14.5 13.6758H1.50001C1.22414 13.6758 0.999996 13.4517 0.999996 13.1758V4.771L7.67236 10.5537C7.76661 10.6352 7.8833 10.6758 8 10.6758C8.1167 10.6758 8.23339 10.6353 8.32764 10.5537L15 4.771V13.1758C15 13.4517 14.7759 13.6758 14.5 13.6758Z" fill="black"/>
</g>
<defs>
<clipPath id="clip0_214_396">
<rect width="16" height="16" fill="white" transform="translate(0 0.675781)"/>
</clipPath>
</defs>
</svg>
