<svg width="24" height="24" viewBox="0 0 24 24" fill="none" xmlns="http://www.w3.org/2000/svg">
<g clip-path="url(#clip0_214_497)">
<path d="M7.63421 21.449L0.749512 23.25L2.54552 16.3463M7.63421 21.449L2.54552 16.3463M7.63421 21.449L8.53222 20.5485M2.54552 16.3463L17.0134 1.83841C18.4103 0.437655 20.7052 0.3376 22.2018 1.83841C23.5987 3.23917 23.5987 5.54037 22.2018 7.04119L20.5056 8.74212M16.6142 2.2386L21.7029 7.34141M17.5122 8.34201L14.02 4.84011M17.412 23.2503L12.312 17.9503C11.412 17.0503 11.212 15.6503 11.712 14.4503C12.612 12.6503 15.112 12.2503 16.512 13.6503L17.312 14.4503L18.112 13.6503C19.612 12.1503 22.012 12.5503 22.912 14.4503C23.512 15.6503 23.312 17.0503 22.312 17.9503L17.412 23.2503Z" stroke="white" stroke-miterlimit="10" stroke-linecap="round" stroke-linejoin="round"/>
</g>
<defs>
<clipPath id="clip0_214_497">
<rect width="24" height="24" fill="white"/>
</clipPath>
</defs>
</svg>
