<svg width="24" height="24" viewBox="0 0 24 24" fill="none" xmlns="http://www.w3.org/2000/svg">
<path d="M11.9995 9.5V12.435C11.9995 12.6944 11.8965 12.9431 11.7131 13.1266C11.5297 13.31 11.2809 13.413 11.0215 13.413H10.6995M8.49951 9.5V11.13M15.4995 9.5V11.13M9.21651 15.37C9.88038 15.9981 10.7596 16.3481 11.6735 16.3481C12.5874 16.3481 13.4666 15.9981 14.1305 15.37M14.4995 0.5V1.5C14.4995 1.76522 14.3942 2.01957 14.2066 2.20711C14.0191 2.39464 13.7647 2.5 13.4995 2.5H10.4995C10.2343 2.5 9.97994 2.39464 9.79241 2.20711C9.60487 2.01957 9.49951 1.76522 9.49951 1.5V0.5M7.49951 0.5H16.4995C16.4995 0.5 18.4995 0.5 18.4995 2.5V21.5C18.4995 21.5 18.4995 23.5 16.4995 23.5H7.49951C7.49951 23.5 5.49951 23.5 5.49951 21.5V2.5C5.49951 2.5 5.49951 0.5 7.49951 0.5Z" stroke="#FCCA03" stroke-linecap="round" stroke-linejoin="round"/>
</svg>
