<svg width="19" height="20" viewBox="0 0 19 20" fill="none" xmlns="http://www.w3.org/2000/svg">
<g clip-path="url(#clip0_214_409)">
<path d="M14.2349 0.675781H4.75C2.14127 0.675781 0 2.81705 0 5.44086V14.9258C0 17.5345 2.14127 19.6758 4.75 19.6758H14.2349C16.8587 19.6758 19 17.5345 19 14.9107V5.44086C19 2.81705 16.8587 0.675781 14.2349 0.675781ZM12.0484 10.1758H10.254V16.0567H7.99206V10.1758H6.78571V7.76308H7.84127V6.73769C7.84127 5.77261 8.32381 4.24959 10.3595 4.24959H12.2143V6.25515H10.9024C10.6913 6.25515 10.4048 6.39086 10.4048 6.85832V7.76308H12.2595L12.0484 10.1758Z" fill="#264796"/>
</g>
<defs>
<clipPath id="clip0_214_409">
<rect width="19" height="19" fill="white" transform="translate(0 0.675781)"/>
</clipPath>
</defs>
</svg>
