<svg width="24" height="24" viewBox="0 0 24 24" fill="none" xmlns="http://www.w3.org/2000/svg">
<path d="M10.4995 8.5C10.4995 9.42826 10.1308 10.3185 9.47439 10.9749C8.81801 11.6313 7.92777 12 6.99951 12C6.07125 12 5.18102 11.6313 4.52464 10.9749C3.86826 10.3185 3.49951 9.42826 3.49951 8.5C3.49951 7.57174 3.86826 6.6815 4.52464 6.02513C5.18102 5.36875 6.07125 5 6.99951 5M10.4995 8.5C10.4995 7.57174 10.1308 6.6815 9.47439 6.02513C8.81801 5.36875 7.92777 5 6.99951 5M10.4995 8.5H6.99951V5M8.99951 22.5C9.90533 21.3562 10.4299 19.9573 10.4995 18.5M14.9995 22.5C14.0937 21.3562 13.5691 19.9573 13.4995 18.5M7.49851 22.5H16.4985M0.499512 15.5H23.4995M13.4995 7L14.9995 5L17.9995 7.5L20.4995 4.5M19.4995 12.5V11M17.4995 12.5V10.5M15.4995 12.5V9.5M13.4995 12.5V11M1.49951 1.5H22.4995C22.4995 1.5 23.4995 1.5 23.4995 2.5V17.5C23.4995 17.5 23.4995 18.5 22.4995 18.5H1.49951C1.49951 18.5 0.499512 18.5 0.499512 17.5V2.5C0.499512 2.5 0.499512 1.5 1.49951 1.5Z" stroke="white" stroke-linecap="round" stroke-linejoin="round"/>
</svg>
