<svg width="27" height="35" viewBox="0 0 27 35" fill="none" xmlns="http://www.w3.org/2000/svg">
<g clip-path="url(#clip0_211_98)">
<path d="M26.4213 17.1108C24.6856 15.2636 22.3713 13.9997 19.9606 13.5136C18.8998 13.2219 17.8391 13.0275 16.7784 12.9303C19.4784 9.72194 18.9963 4.86082 15.8141 2.1386C12.632 -0.583619 7.81055 -0.0975081 5.11055 3.11082C2.41055 6.31916 2.8927 11.1803 6.07484 13.9025C6.65341 14.3886 7.23198 14.7775 7.81055 14.9719V17.1108L6.2677 15.6525C4.9177 14.2914 2.69984 14.2914 1.25341 15.6525C-0.0965888 17.0136 -0.193018 19.1525 1.15698 20.5136L5.5927 25.7636C5.78555 27.1247 6.2677 28.3886 6.9427 29.5553C7.42484 30.4303 8.09984 31.3053 8.77484 31.9858V33.833C8.77484 34.4164 9.16055 34.8053 9.73912 34.8053H22.8534C23.3356 34.8053 23.8177 34.3192 23.8177 33.833V31.3053C25.6498 29.0692 26.6141 26.2497 26.6141 23.4303V17.7914C26.7106 17.4025 26.6141 17.208 26.4213 17.1108ZM5.20698 7.97193C5.20698 4.7636 7.81055 2.23582 10.9927 2.33305C14.1748 2.33305 16.682 4.95805 16.5856 8.16638C16.5856 9.91638 15.8141 11.4719 14.4641 12.5414V7.68027C14.4149 6.83771 14.0478 6.04606 13.4382 5.4676C12.8287 4.88914 12.0227 4.5677 11.1856 4.56916C9.44984 4.47194 7.90698 5.93027 7.90698 7.68027V12.7358C6.2677 11.7636 5.30341 9.91638 5.20698 7.97193ZM24.782 23.333C24.8784 25.8608 24.0106 28.2914 22.3713 30.2358C22.1784 30.4303 21.9855 30.6247 21.9855 30.9164V32.958H10.7998V31.5969C10.7998 31.3053 10.607 31.0136 10.4141 30.8192C9.73912 30.2358 9.16055 29.5553 8.67841 28.6803C8.09984 27.708 7.71412 26.5414 7.52127 25.3747C7.52127 25.1803 7.42484 24.9858 7.32841 24.7914L2.69984 19.2497C2.41055 18.958 2.2177 18.5692 2.2177 18.083C2.2177 17.6942 2.41055 17.208 2.69984 16.9164C3.37484 16.333 4.33912 16.333 5.01412 16.9164L7.81055 19.7358V22.6525L9.6427 21.6803V7.68027C9.73912 6.99971 10.3177 6.41638 11.0891 6.5136C11.7641 6.5136 12.4391 6.99971 12.4391 7.68027V18.8608L14.3677 19.2497V14.7775C14.4641 14.6803 14.5606 14.6803 14.657 14.583C15.332 14.583 16.007 14.6803 16.682 14.7775V19.7358L18.2248 20.0275V14.9719L19.382 15.2636C19.8641 15.3608 20.3463 15.5553 20.8284 15.7497V20.6108L22.3713 20.9025V16.4303C23.2391 16.8192 24.0106 17.4025 24.6856 18.083L24.782 23.333Z" fill="black"/>
</g>
<defs>
<clipPath id="clip0_211_98">
<rect width="27" height="35" fill="white"/>
</clipPath>
</defs>
</svg>
