<svg width="15" height="16" viewBox="0 0 15 16" fill="none" xmlns="http://www.w3.org/2000/svg">
<g clip-path="url(#clip0_214_389)">
<path d="M7.48959 0.675781C4.45827 0.675781 1.99219 3.14187 1.99219 6.17318C1.99219 7.5657 2.86961 9.53316 4.60018 12.021C5.8651 13.8396 7.10918 15.2469 7.1616 15.3059L7.48959 15.6758L7.81769 15.3059C7.86999 15.2469 9.11407 13.8396 10.3791 12.021C12.1096 9.53316 12.9871 7.5657 12.9871 6.17318C12.9871 3.14187 10.5209 0.675781 7.48959 0.675781ZM9.66396 11.5131C8.80898 12.7431 7.94483 13.8017 7.48959 14.3417C7.03548 13.8032 6.17455 12.7486 5.32013 11.5202C3.7167 9.21513 2.86915 7.36611 2.86915 6.17318C2.86915 3.6255 4.9419 1.55274 7.48959 1.55274C10.0374 1.55274 12.11 3.6255 12.11 6.17318C12.11 7.36485 11.2642 9.21136 9.66396 11.5131Z" fill="black"/>
<path d="M7.48963 2.70703C5.70058 2.70703 4.24512 4.16249 4.24512 5.95155C4.24512 7.7406 5.70058 9.19617 7.48963 9.19617C9.2788 9.19617 10.7343 7.7406 10.7343 5.95155C10.7343 4.16249 9.2788 2.70703 7.48963 2.70703ZM7.48963 8.31921C6.1842 8.31921 5.12208 7.25709 5.12208 5.95155C5.12208 4.64612 6.1842 3.58399 7.48963 3.58399C8.79517 3.58399 9.8573 4.64612 9.8573 5.95155C9.8573 7.25709 8.79517 8.31921 7.48963 8.31921Z" fill="black"/>
</g>
<defs>
<clipPath id="clip0_214_389">
<rect width="15" height="15" fill="white" transform="translate(0 0.675781)"/>
</clipPath>
</defs>
</svg>
