<?xml version="1.0" encoding="utf-8"?><svg xmlns="http://www.w3.org/2000/svg" xmlns:xlink="http://www.w3.org/1999/xlink">
    <symbol viewBox="0 0 24 24" id="arrow-down" xmlns="http://www.w3.org/2000/svg">
        <path d="M11.5883 15.7984C11.6342 15.8606 11.6955 15.9114 11.7671 15.9465C11.8388 15.9816 11.9184 16 11.9993 16C12.0802 16 12.1599 15.9816 12.2315 15.9465C12.3031 15.9114 12.3645 15.8606 12.4104 15.7984L16.9107 9.73215C16.9628 9.66218 16.9933 9.58023 16.999 9.4952C17.0047 9.41016 16.9853 9.3253 16.943 9.24983C16.9006 9.17436 16.8369 9.11117 16.7587 9.06713C16.6806 9.02308 16.591 8.99987 16.4997 9H7.49897C7.40788 9.00035 7.31862 9.02387 7.24079 9.06802C7.16296 9.11217 7.09949 9.17529 7.05722 9.25058C7.01495 9.32587 6.99547 9.4105 7.00089 9.49535C7.0063 9.5802 7.03639 9.66207 7.08794 9.73215L11.5883 15.7984Z" />
    </symbol>
    <symbol viewBox="0 0 15 18" id="arrow-left" xmlns="http://www.w3.org/2000/svg">
        <path d="M-4.37114e-07 9L15 0.339744L15 17.6603L-4.37114e-07 9Z" />
    </symbol>
    <symbol viewBox="0 0 21 19" id="book" xmlns="http://www.w3.org/2000/svg">
        <path fill-rule="evenodd" clip-rule="evenodd" d="M1.83334 2.06041C4.53512 2.07324 6.41837 2.42596 7.68505 3.05443C8.88485 3.64972 9.54042 4.49432 9.83333 5.61127V16.3565C8.31733 15.194 5.98745 14.5233 1.84581 14.5219C1.84013 14.5066 1.83334 14.4798 1.83334 14.4384V2.06041ZM11.1667 16.3555C12.6855 15.1889 15.0145 14.5219 19.1667 14.5219V2.0604C16.4649 2.07324 14.5816 2.42596 13.315 3.05443C12.1151 3.64972 11.4596 4.49432 11.1667 5.61127V16.3555ZM10.5 3.77853C9.99396 2.95911 9.25433 2.2985 8.25985 1.80509C6.73085 1.04647 4.61503 0.688733 1.83633 0.675793L1.83585 0.675791C1.66024 0.675103 1.48623 0.710516 1.32386 0.779986C1.16149 0.849457 1.01397 0.951612 0.889792 1.08057C0.765616 1.20952 0.667243 1.36272 0.600345 1.53133C0.533634 1.69948 0.499538 1.87964 0.500005 2.06149V14.4384C0.500005 14.7909 0.605155 15.1514 0.838027 15.4355C1.07931 15.7297 1.43121 15.9066 1.83334 15.9066C7.08735 15.9066 8.9012 17.015 9.97922 18.4157C10.1057 18.58 10.2973 18.6757 10.4999 18.6758C10.7024 18.6758 10.894 18.5802 11.0206 18.4159C12.106 17.0069 13.9123 15.9066 19.1667 15.9066C19.5203 15.9066 19.8594 15.7607 20.1095 15.501C20.3595 15.2413 20.5 14.8892 20.5 14.5219V2.06135C20.5004 1.87954 20.4663 1.69943 20.3997 1.53133C20.3328 1.36272 20.2344 1.20952 20.1102 1.08057C19.986 0.951611 19.8385 0.849456 19.6761 0.779986C19.5138 0.710516 19.3398 0.675103 19.1642 0.675791L19.1637 0.675793C16.385 0.688733 14.2691 1.04647 12.7402 1.80509C11.7457 2.2985 11.006 2.95911 10.5 3.77853Z" />
    </symbol>
    <symbol viewBox="0 0 24 24" id="calendar" xmlns="http://www.w3.org/2000/svg">
        <g clip-path="url(#dclip0_214_506)">
            <path d="M5.5 0.5V5.5M18.5 0.5V5.5M0.5 7.5H23.5M17 15.499C17 16.4879 16.7068 17.4546 16.1573 18.2769C15.6079 19.0991 14.827 19.74 13.9134 20.1184C12.9998 20.4968 11.9945 20.5959 11.0245 20.4029C10.0546 20.21 9.16373 19.7338 8.46447 19.0345C7.7652 18.3353 7.289 17.4444 7.09607 16.4745C6.90315 15.5045 7.00216 14.4992 7.3806 13.5856C7.75904 12.672 8.3999 11.8911 9.22215 11.3417C10.0444 10.7922 11.0111 10.499 12 10.499M10 14.999L11.62 16.214C11.7225 16.2909 11.8507 16.3254 11.978 16.3105C12.1053 16.2956 12.222 16.2324 12.304 16.134L17 10.499M1.5 2.5H22.5C22.5 2.5 23.5 2.5 23.5 3.5V22.5C23.5 22.5 23.5 23.5 22.5 23.5H1.5C1.5 23.5 0.5 23.5 0.5 22.5V3.5C0.5 3.5 0.5 2.5 1.5 2.5Z" stroke-linecap="round" stroke-linejoin="round" />
        </g>
        <defs>
            <clipPath id="dclip0_214_506">
                <rect width="24" height="24" />
            </clipPath>
        </defs>
    </symbol>
    <symbol viewBox="0 0 16 17" id="call" xmlns="http://www.w3.org/2000/svg">
        <g clip-path="url(#eclip0_214_382)">
            <path d="M1.39572 1.93989L1.27318 2.09625C1.07148 2.35362 0.900449 2.65359 0.772303 2.97994C0.652399 3.29648 0.580225 3.59161 0.547327 3.88282L0.546889 3.88657C0.249029 6.3559 1.34476 8.681 4.66828 12.0046C4.66829 12.0046 4.66829 12.0046 4.66829 12.0046M1.39572 1.93989L4.66829 12.0046M1.39572 1.93989L1.91104 1.42161C2.23834 1.09467 2.73655 1.10462 3.01993 1.38786C3.01995 1.38788 3.01998 1.3879 3.02 1.38793L5.4907 3.85918C5.49075 3.85923 5.4908 3.85928 5.49085 3.85933C5.49086 3.85934 5.49087 3.85935 5.49088 3.85935C5.775 4.14402 5.78452 4.64211 5.45773 4.96899L5.45756 4.96916L5.04728 5.37995L5.0468 5.38043L4.21178 6.2142L3.94128 6.4843L4.131 6.81617C4.1665 6.87827 4.20238 6.94318 4.24162 7.01416C4.24814 7.02595 4.25475 7.03791 4.26146 7.05005L4.26187 7.05079L4.26737 7.06069C4.70735 7.85285 5.33243 8.97828 6.51534 10.1611M1.39572 1.93989L6.51534 10.1611M4.66829 12.0046C9.12703 16.463 12.6738 16.1426 12.7939 16.1304M4.66829 12.0046L12.7939 16.1304M12.7939 16.1304C13.1011 16.0934 13.3954 16.0201 13.6974 15.9029C14.021 15.7765 14.3215 15.6054 14.5795 15.4036L14.7021 15.3076L15.2563 14.765C15.5806 14.4381 15.5711 13.9405 15.2874 13.6556C15.2873 13.6555 15.2872 13.6554 15.2872 13.6554L12.8175 11.1854C12.8174 11.1853 12.8172 11.1852 12.8171 11.185C12.5319 10.9014 12.0334 10.8928 11.7074 11.2189L11.7073 11.219L10.4625 12.4636L10.1967 12.7292L9.86761 12.5479C9.78816 12.5041 9.70603 12.4584 9.61981 12.41L9.61943 12.4098C8.82687 11.9706 7.69932 11.3459 6.51549 10.1612C6.51544 10.1612 6.51539 10.1611 6.51534 10.1611M12.7939 16.1304L4.70145 6.81247C5.13815 7.59871 5.73561 8.67438 6.86902 9.80766L6.51534 10.1611" />
        </g>
        <defs>
            <clipPath id="eclip0_214_382">
                <rect width="16" height="16" transform="translate(0 0.675781)" />
            </clipPath>
        </defs>
    </symbol>
    <symbol viewBox="0 0 15 16" id="clock" xmlns="http://www.w3.org/2000/svg">
        <g clip-path="url(#fclip0_214_400)">
            <path d="M7.5 0.675781C3.36457 0.675781 0 4.04035 0 8.17578C0 12.3112 3.36457 15.6758 7.5 15.6758C11.6354 15.6758 15 12.3112 15 8.17578C15 4.04035 11.6354 0.675781 7.5 0.675781ZM7.5 14.7383C3.88137 14.7383 0.937504 11.7944 0.937504 8.17578C0.937504 4.55716 3.88137 1.61329 7.5 1.61329C11.1186 1.61329 14.0625 4.55716 14.0625 8.17578C14.0625 11.7944 11.1186 14.7383 7.5 14.7383Z" />
            <path d="M7.96875 3.48828H7.03125V8.36986L9.98107 11.3197L10.6439 10.6568L7.96875 7.98168V3.48828Z" />
        </g>
        <defs>
            <clipPath id="fclip0_214_400">
                <rect width="15" height="15" transform="translate(0 0.675781)" />
            </clipPath>
        </defs>
    </symbol>
    <symbol viewBox="0 0 16 17" id="email" xmlns="http://www.w3.org/2000/svg">
        <g clip-path="url(#gclip0_214_396)">
            <path d="M14.5 2.67578H1.50001C0.672854 2.67578 0 3.34864 0 4.17579V13.1758C0 14.003 0.672854 14.6758 1.50001 14.6758H14.5C15.3271 14.6758 16 14.003 16 13.1758V4.17579C16 3.34864 15.3271 2.67578 14.5 2.67578ZM14.5 3.67578C14.5679 3.67578 14.6325 3.68987 14.6916 3.71449L8 9.51418L1.30833 3.71449C1.36742 3.68991 1.43204 3.67578 1.49998 3.67578H14.5ZM14.5 13.6758H1.50001C1.22414 13.6758 0.999996 13.4517 0.999996 13.1758V4.771L7.67236 10.5537C7.76661 10.6352 7.8833 10.6758 8 10.6758C8.1167 10.6758 8.23339 10.6353 8.32764 10.5537L15 4.771V13.1758C15 13.4517 14.7759 13.6758 14.5 13.6758Z" />
        </g>
        <defs>
            <clipPath id="gclip0_214_396">
                <rect width="16" height="16" transform="translate(0 0.675781)" />
            </clipPath>
        </defs>
    </symbol>
    <symbol viewBox="0 0 19 20" id="facebook" xmlns="http://www.w3.org/2000/svg">
        <g clip-path="url(#hclip0_214_409)">
            <path d="M14.2349 0.675781H4.75C2.14127 0.675781 0 2.81705 0 5.44086V14.9258C0 17.5345 2.14127 19.6758 4.75 19.6758H14.2349C16.8587 19.6758 19 17.5345 19 14.9107V5.44086C19 2.81705 16.8587 0.675781 14.2349 0.675781ZM12.0484 10.1758H10.254V16.0567H7.99206V10.1758H6.78571V7.76308H7.84127V6.73769C7.84127 5.77261 8.32381 4.24959 10.3595 4.24959H12.2143V6.25515H10.9024C10.6913 6.25515 10.4048 6.39086 10.4048 6.85832V7.76308H12.2595L12.0484 10.1758Z" />
        </g>
        <defs>
            <clipPath id="hclip0_214_409">
                <rect width="19" height="19" transform="translate(0 0.675781)" />
            </clipPath>
        </defs>
    </symbol>
    <symbol viewBox="0 0 24 24" id="graph" xmlns="http://www.w3.org/2000/svg">
        <path d="M10.4995 8.5C10.4995 9.42826 10.1308 10.3185 9.47439 10.9749C8.81801 11.6313 7.92777 12 6.99951 12C6.07125 12 5.18102 11.6313 4.52464 10.9749C3.86826 10.3185 3.49951 9.42826 3.49951 8.5C3.49951 7.57174 3.86826 6.6815 4.52464 6.02513C5.18102 5.36875 6.07125 5 6.99951 5M10.4995 8.5C10.4995 7.57174 10.1308 6.6815 9.47439 6.02513C8.81801 5.36875 7.92777 5 6.99951 5M10.4995 8.5H6.99951V5M8.99951 22.5C9.90533 21.3562 10.4299 19.9573 10.4995 18.5M14.9995 22.5C14.0937 21.3562 13.5691 19.9573 13.4995 18.5M7.49851 22.5H16.4985M0.499512 15.5H23.4995M13.4995 7L14.9995 5L17.9995 7.5L20.4995 4.5M19.4995 12.5V11M17.4995 12.5V10.5M15.4995 12.5V9.5M13.4995 12.5V11M1.49951 1.5H22.4995C22.4995 1.5 23.4995 1.5 23.4995 2.5V17.5C23.4995 17.5 23.4995 18.5 22.4995 18.5H1.49951C1.49951 18.5 0.499512 18.5 0.499512 17.5V2.5C0.499512 2.5 0.499512 1.5 1.49951 1.5Z" stroke-linecap="round" stroke-linejoin="round" />
    </symbol>
    <symbol viewBox="0 0 27 35" id="hand-click" xmlns="http://www.w3.org/2000/svg">
        <g clip-path="url(#jclip0_211_98)">
            <path d="M26.4213 17.1108C24.6856 15.2636 22.3713 13.9997 19.9606 13.5136C18.8998 13.2219 17.8391 13.0275 16.7784 12.9303C19.4784 9.72194 18.9963 4.86082 15.8141 2.1386C12.632 -0.583619 7.81055 -0.0975081 5.11055 3.11082C2.41055 6.31916 2.8927 11.1803 6.07484 13.9025C6.65341 14.3886 7.23198 14.7775 7.81055 14.9719V17.1108L6.2677 15.6525C4.9177 14.2914 2.69984 14.2914 1.25341 15.6525C-0.0965888 17.0136 -0.193018 19.1525 1.15698 20.5136L5.5927 25.7636C5.78555 27.1247 6.2677 28.3886 6.9427 29.5553C7.42484 30.4303 8.09984 31.3053 8.77484 31.9858V33.833C8.77484 34.4164 9.16055 34.8053 9.73912 34.8053H22.8534C23.3356 34.8053 23.8177 34.3192 23.8177 33.833V31.3053C25.6498 29.0692 26.6141 26.2497 26.6141 23.4303V17.7914C26.7106 17.4025 26.6141 17.208 26.4213 17.1108ZM5.20698 7.97193C5.20698 4.7636 7.81055 2.23582 10.9927 2.33305C14.1748 2.33305 16.682 4.95805 16.5856 8.16638C16.5856 9.91638 15.8141 11.4719 14.4641 12.5414V7.68027C14.4149 6.83771 14.0478 6.04606 13.4382 5.4676C12.8287 4.88914 12.0227 4.5677 11.1856 4.56916C9.44984 4.47194 7.90698 5.93027 7.90698 7.68027V12.7358C6.2677 11.7636 5.30341 9.91638 5.20698 7.97193ZM24.782 23.333C24.8784 25.8608 24.0106 28.2914 22.3713 30.2358C22.1784 30.4303 21.9855 30.6247 21.9855 30.9164V32.958H10.7998V31.5969C10.7998 31.3053 10.607 31.0136 10.4141 30.8192C9.73912 30.2358 9.16055 29.5553 8.67841 28.6803C8.09984 27.708 7.71412 26.5414 7.52127 25.3747C7.52127 25.1803 7.42484 24.9858 7.32841 24.7914L2.69984 19.2497C2.41055 18.958 2.2177 18.5692 2.2177 18.083C2.2177 17.6942 2.41055 17.208 2.69984 16.9164C3.37484 16.333 4.33912 16.333 5.01412 16.9164L7.81055 19.7358V22.6525L9.6427 21.6803V7.68027C9.73912 6.99971 10.3177 6.41638 11.0891 6.5136C11.7641 6.5136 12.4391 6.99971 12.4391 7.68027V18.8608L14.3677 19.2497V14.7775C14.4641 14.6803 14.5606 14.6803 14.657 14.583C15.332 14.583 16.007 14.6803 16.682 14.7775V19.7358L18.2248 20.0275V14.9719L19.382 15.2636C19.8641 15.3608 20.3463 15.5553 20.8284 15.7497V20.6108L22.3713 20.9025V16.4303C23.2391 16.8192 24.0106 17.4025 24.6856 18.083L24.782 23.333Z" />
        </g>
        <defs>
            <clipPath id="jclip0_211_98">
                <rect width="27" height="35" />
            </clipPath>
        </defs>
    </symbol>
    <symbol viewBox="0 0 20 21" id="instagram" xmlns="http://www.w3.org/2000/svg">
        <g clip-path="url(#kclip0_214_405)">
            <path d="M11.7578 10.6758C11.7578 11.6465 10.9708 12.4336 10 12.4336C9.02924 12.4336 8.24219 11.6465 8.24219 10.6758C8.24219 9.70502 9.02924 8.91797 10 8.91797C10.9708 8.91797 11.7578 9.70502 11.7578 10.6758Z" />
            <path d="M12.9688 5.36328H7.03125C5.73883 5.36328 4.6875 6.41461 4.6875 7.70703V13.6445C4.6875 14.937 5.73883 15.9883 7.03125 15.9883H12.9688C14.2612 15.9883 15.3125 14.937 15.3125 13.6445V7.70703C15.3125 6.41461 14.2612 5.36328 12.9688 5.36328ZM10 13.6055C8.38455 13.6055 7.07031 12.2912 7.07031 10.6758C7.07031 9.06033 8.38455 7.74609 10 7.74609C11.6154 7.74609 12.9297 9.06033 12.9297 10.6758C12.9297 12.2912 11.6154 13.6055 10 13.6055ZM13.3594 7.90234C13.0357 7.90234 12.7734 7.64005 12.7734 7.31641C12.7734 6.99277 13.0357 6.73047 13.3594 6.73047C13.683 6.73047 13.9453 6.99277 13.9453 7.31641C13.9453 7.64005 13.683 7.90234 13.3594 7.90234Z" />
            <path d="M14.7266 0.675781H5.27344C2.36572 0.675781 0 3.0415 0 5.94922V15.4023C0 18.3101 2.36572 20.6758 5.27344 20.6758H14.7266C17.6343 20.6758 20 18.3101 20 15.4023V5.94922C20 3.0415 17.6343 0.675781 14.7266 0.675781ZM16.4844 13.6445C16.4844 15.583 14.9072 17.1602 12.9688 17.1602H7.03125C5.09277 17.1602 3.51562 15.583 3.51562 13.6445V7.70703C3.51562 5.76855 5.09277 4.19141 7.03125 4.19141H12.9688C14.9072 4.19141 16.4844 5.76855 16.4844 7.70703V13.6445Z" />
        </g>
        <defs>
            <clipPath id="kclip0_214_405">
                <rect width="20" height="20" transform="translate(0 0.675781)" />
            </clipPath>
        </defs>
    </symbol>
    <symbol viewBox="0 0 24 24" id="journal" xmlns="http://www.w3.org/2000/svg">
        <path d="M5.5 0.5V5.5M18.5 0.5V5.5M0.5 7.5H23.5M17 15.499C17 16.4879 16.7068 17.4546 16.1573 18.2769C15.6079 19.0991 14.827 19.74 13.9134 20.1184C12.9998 20.4968 11.9945 20.5959 11.0245 20.4029C10.0546 20.21 9.16373 19.7338 8.46447 19.0345C7.7652 18.3353 7.289 17.4444 7.09607 16.4745C6.90315 15.5045 7.00216 14.4992 7.3806 13.5856C7.75904 12.672 8.3999 11.8911 9.22215 11.3417C10.0444 10.7922 11.0111 10.499 12 10.499M10 14.999L11.62 16.214C11.7225 16.2909 11.8507 16.3254 11.978 16.3105C12.1053 16.2956 12.222 16.2324 12.304 16.134L17 10.499M1.5 2.5H22.5C22.5 2.5 23.5 2.5 23.5 3.5V22.5C23.5 22.5 23.5 23.5 22.5 23.5H1.5C1.5 23.5 0.5 23.5 0.5 22.5V3.5C0.5 3.5 0.5 2.5 1.5 2.5Z" stroke-linecap="round" stroke-linejoin="round" />
    </symbol>
    <symbol viewBox="0 0 15 16" id="map" xmlns="http://www.w3.org/2000/svg">
        <g clip-path="url(#mclip0_214_389)">
            <path d="M7.48959 0.675781C4.45827 0.675781 1.99219 3.14187 1.99219 6.17318C1.99219 7.5657 2.86961 9.53316 4.60018 12.021C5.8651 13.8396 7.10918 15.2469 7.1616 15.3059L7.48959 15.6758L7.81769 15.3059C7.86999 15.2469 9.11407 13.8396 10.3791 12.021C12.1096 9.53316 12.9871 7.5657 12.9871 6.17318C12.9871 3.14187 10.5209 0.675781 7.48959 0.675781ZM9.66396 11.5131C8.80898 12.7431 7.94483 13.8017 7.48959 14.3417C7.03548 13.8032 6.17455 12.7486 5.32013 11.5202C3.7167 9.21513 2.86915 7.36611 2.86915 6.17318C2.86915 3.6255 4.9419 1.55274 7.48959 1.55274C10.0374 1.55274 12.11 3.6255 12.11 6.17318C12.11 7.36485 11.2642 9.21136 9.66396 11.5131Z" />
            <path d="M7.48963 2.70703C5.70058 2.70703 4.24512 4.16249 4.24512 5.95155C4.24512 7.7406 5.70058 9.19617 7.48963 9.19617C9.2788 9.19617 10.7343 7.7406 10.7343 5.95155C10.7343 4.16249 9.2788 2.70703 7.48963 2.70703ZM7.48963 8.31921C6.1842 8.31921 5.12208 7.25709 5.12208 5.95155C5.12208 4.64612 6.1842 3.58399 7.48963 3.58399C8.79517 3.58399 9.8573 4.64612 9.8573 5.95155C9.8573 7.25709 8.79517 8.31921 7.48963 8.31921Z" />
        </g>
        <defs>
            <clipPath id="mclip0_214_389">
                <rect width="15" height="15" transform="translate(0 0.675781)" />
            </clipPath>
        </defs>
    </symbol>
    <symbol viewBox="0 0 42 56" id="mark" xmlns="http://www.w3.org/2000/svg">
        <path d="M35.3046 31.0469C33.4848 34.735 31.0191 38.4093 28.4979 41.7084C26.1035 44.8166 23.5463 47.7958 20.8369 50.6336C18.1274 47.7958 15.5702 44.8166 13.1758 41.7084C10.6546 38.4093 8.18889 34.735 6.36913 31.0469C4.52854 27.3206 3.47281 23.8304 3.47281 20.8369C3.47281 16.2316 5.30223 11.815 8.55862 8.55862C11.815 5.30223 16.2316 3.47281 20.8369 3.47281C25.4421 3.47281 29.8587 5.30223 33.1151 8.55862C36.3715 11.815 38.2009 16.2316 38.2009 20.8369C38.2009 23.8304 37.1417 27.3206 35.3046 31.0469ZM20.8369 55.565C20.8369 55.565 41.6737 35.8186 41.6737 20.8369C41.6737 15.3106 39.4784 10.0106 35.5707 6.10297C31.6631 2.19531 26.3631 0 20.8369 0C15.3106 0 10.0106 2.19531 6.10297 6.10297C2.19531 10.0106 8.2348e-08 15.3106 0 20.8369C0 35.8186 20.8369 55.565 20.8369 55.565Z" />
        <path d="M20.8364 27.782C18.9943 27.782 17.2277 27.0502 15.9251 25.7477C14.6225 24.4451 13.8908 22.6785 13.8908 20.8364C13.8908 18.9943 14.6225 17.2277 15.9251 15.9251C17.2277 14.6225 18.9943 13.8908 20.8364 13.8908C22.6785 13.8908 24.4451 14.6225 25.7477 15.9251C27.0502 17.2277 27.782 18.9943 27.782 20.8364C27.782 22.6785 27.0502 24.4451 25.7477 25.7477C24.4451 27.0502 22.6785 27.782 20.8364 27.782ZM20.8364 31.2548C23.5995 31.2548 26.2495 30.1572 28.2033 28.2033C30.1572 26.2495 31.2548 23.5995 31.2548 20.8364C31.2548 18.0733 30.1572 15.4233 28.2033 13.4695C26.2495 11.5156 23.5995 10.418 20.8364 10.418C18.0733 10.418 15.4233 11.5156 13.4695 13.4695C11.5156 15.4233 10.418 18.0733 10.418 20.8364C10.418 23.5995 11.5156 26.2495 13.4695 28.2033C15.4233 30.1572 18.0733 31.2548 20.8364 31.2548Z" />
    </symbol>
    <symbol viewBox="0 0 24 24" id="pen" xmlns="http://www.w3.org/2000/svg">
        <g clip-path="url(#oclip0_214_497)">
            <path d="M7.63421 21.449L0.749512 23.25L2.54552 16.3463M7.63421 21.449L2.54552 16.3463M7.63421 21.449L8.53222 20.5485M2.54552 16.3463L17.0134 1.83841C18.4103 0.437655 20.7052 0.3376 22.2018 1.83841C23.5987 3.23917 23.5987 5.54037 22.2018 7.04119L20.5056 8.74212M16.6142 2.2386L21.7029 7.34141M17.5122 8.34201L14.02 4.84011M17.412 23.2503L12.312 17.9503C11.412 17.0503 11.212 15.6503 11.712 14.4503C12.612 12.6503 15.112 12.2503 16.512 13.6503L17.312 14.4503L18.112 13.6503C19.612 12.1503 22.012 12.5503 22.912 14.4503C23.512 15.6503 23.312 17.0503 22.312 17.9503L17.412 23.2503Z" stroke-miterlimit="10" stroke-linecap="round" stroke-linejoin="round" />
        </g>
        <defs>
            <clipPath id="oclip0_214_497">
                <rect width="24" height="24" />
            </clipPath>
        </defs>
    </symbol>
    <symbol viewBox="0 0 24 24" id="phone" xmlns="http://www.w3.org/2000/svg">
        <path d="M11.9995 9.5V12.435C11.9995 12.6944 11.8965 12.9431 11.7131 13.1266C11.5297 13.31 11.2809 13.413 11.0215 13.413H10.6995M8.49951 9.5V11.13M15.4995 9.5V11.13M9.21651 15.37C9.88038 15.9981 10.7596 16.3481 11.6735 16.3481C12.5874 16.3481 13.4666 15.9981 14.1305 15.37M14.4995 0.5V1.5C14.4995 1.76522 14.3942 2.01957 14.2066 2.20711C14.0191 2.39464 13.7647 2.5 13.4995 2.5H10.4995C10.2343 2.5 9.97994 2.39464 9.79241 2.20711C9.60487 2.01957 9.49951 1.76522 9.49951 1.5V0.5M7.49951 0.5H16.4995C16.4995 0.5 18.4995 0.5 18.4995 2.5V21.5C18.4995 21.5 18.4995 23.5 16.4995 23.5H7.49951C7.49951 23.5 5.49951 23.5 5.49951 21.5V2.5C5.49951 2.5 5.49951 0.5 7.49951 0.5Z" stroke-linecap="round" stroke-linejoin="round" />
    </symbol>
</svg>